<svg height="202" width="1080" xmlns="http://www.w3.org/2000/svg" version="1.1">
<path transform="translate(486,34)" fill="#000000" d="M0 0 C8.13728208 -0.0699339 16.27443571 -0.12302907 24.41194534 -0.15543652 C28.19173146 -0.17100124 31.97130991 -0.19206809 35.75097656 -0.22631836 C39.40794628 -0.25924421 43.06471798 -0.27692187 46.72182465 -0.28463173 C48.1074815 -0.29011635 49.49312921 -0.30082379 50.87870026 -0.31719017 C65.60776995 -0.4840326 80.79906578 1.91442604 92 12.375 C98.03010852 19.00811937 100.40351105 26.43624868 100.2734375 35.28125 C99.4260475 43.70672775 95.15259638 50.37476903 89 56 C83.83068793 60.05105273 78.27576324 62.21315074 72 64 C72 64.33 72 64.66 72 65 C72.76183594 65.15855469 73.52367187 65.31710938 74.30859375 65.48046875 C85.37466255 67.9810411 94.9076345 72.07500619 101.25 81.9453125 C106.47885335 91.74941252 106.35019554 101.67488003 106.47851562 112.53320312 C106.62540133 118.72748085 106.82968801 123.59622944 110 129 C114.04121906 131.69414604 117.25370575 131.5569631 122 131 C125.45346148 129.65253476 125.45346148 129.65253476 128 128 C128 128.99 128 129.98 128 131 C120.20626063 135.6462677 113.73359526 137.28987701 104.59375 135.5390625 C98.06418494 133.63833295 93.30042389 130.47809447 89.52734375 124.7734375 C83.82053535 114.29154451 83.68138919 102.93457258 83.52148438 91.25390625 C83.3227097 83.99135849 82.49150575 78.9628717 77.6875 73.25 C66.34856635 63.75693927 52.59144458 66.56120941 38 66 C38 88.11 38 110.22 38 133 C44.93 133 51.86 133 59 133 C59 133.66 59 134.32 59 135 C39.53 135 20.06 135 0 135 C0 134.34 0 133.68 0 133 C5.61 133 11.22 133 17 133 C17 89.77 17 46.54 17 2 C11.39 2 5.78 2 0 2 C0 1.34 0 0.68 0 0 Z M38 2 C38 22.46 38 42.92 38 64 C57.05046715 65.25112904 57.05046715 65.25112904 74 58 C79.15724681 51.55344148 79.36823254 42.49428997 79.3125 34.5625 C79.30758545 33.73137695 79.3026709 32.90025391 79.29760742 32.04394531 C79.12394109 22.94917287 77.53767792 14.73524511 71 8 C61.66453684 0.80391381 49.16790981 2 38 2 Z"></path>
<path transform="translate(422,40)" fill="#000000" d="M0 0 C16.19997282 12.84579342 26.69337644 29.02146155 29.68359375 49.68359375 C31.62647363 70.04785327 28.88547657 91.22432987 15.8125 107.6875 C14.5513904 109.1335381 13.28077056 110.57134665 12 112 C11.36578125 112.83144531 10.7315625 113.66289062 10.078125 114.51953125 C1.87052625 124.31619517 -11.38083373 130.69644193 -24 132 C-40.88459039 133.11370679 -54.72539095 128.98481166 -67.69140625 118.08203125 C-82.5892911 104.64620617 -90.11169037 85.84931388 -91.22265625 66.02734375 C-91.90587998 43.19870219 -85.45244703 23.31535071 -69.625 6.47265625 C-50.94162777 -11.52206605 -21.63424314 -14.78714984 0 0 Z M-57.0625 3 C-64.39132696 12.07469935 -66.46066672 23.74129508 -68 35 C-68.14356934 36.04401978 -68.14356934 36.04401978 -68.29003906 37.10913086 C-69.28101208 45.47823546 -69.24360818 53.89685603 -69.25 62.3125 C-69.25067474 63.11035919 -69.25134949 63.90821838 -69.25204468 64.73025513 C-69.31810836 96.2551479 -69.31810836 96.2551479 -54.40625 122.96875 C-45.37657053 130.59120669 -34.27153533 130.62619641 -23 130 C-14.07002333 128.59126037 -7.44119638 124.25575958 -1.75 117.3125 C8.93534487 102.03942554 8.23379659 80.96828931 8.25 63.125 C8.25100708 62.35331482 8.25201416 61.58162964 8.25305176 60.78656006 C8.28427387 28.05207989 8.28427387 28.05207989 -6.77734375 0.22265625 C-20.76205569 -11.47416825 -44.56392496 -10.0364884 -57.0625 3 Z"></path>
<path transform="translate(176.8125,33.328125)" fill="#000000" d="M0 0 C6.05346889 1.27597629 12.21668046 1.38176327 18.1875 -0.328125 C18.1875 -0.988125 18.1875 -1.648125 18.1875 -2.328125 C18.8475 -2.328125 19.5075 -2.328125 20.1875 -2.328125 C20.1875 10.541875 20.1875 23.411875 20.1875 36.671875 C17.72939004 34.21376504 17.84614567 33.12516109 17.4375 29.734375 C15.78704107 20.10879774 11.23626845 12.49869395 3.6640625 6.33203125 C-4.19294462 1.06511007 -12.48927662 -0.47164927 -21.8125 0.671875 C-30.74845083 2.49805094 -38.02511494 4.98546306 -43.19921875 12.75390625 C-52.45133752 29.50774295 -53.1687667 49.80622654 -53.07324219 68.49780273 C-53.06255305 70.97209417 -53.0731949 73.44565264 -53.0859375 75.91992188 C-53.09367995 84.32136292 -52.77061926 92.62043906 -51.91015625 100.98046875 C-51.83110046 101.75401199 -51.75204468 102.52755524 -51.67059326 103.32453918 C-50.68334454 112.02444468 -48.7159548 122.63135205 -41.8125 128.671875 C-31.35161172 135.06464006 -21.15150524 137.40699073 -8.953125 135.140625 C-3.01613426 133.48546395 2.3870511 131.51036948 5.81567383 126.10498047 C7.53916978 121.79179306 7.66346509 118.15465424 7.69921875 113.5546875 C7.72614555 112.2689534 7.72614555 112.2689534 7.75361633 110.95724487 C7.80751405 108.23717064 7.84154858 105.5172698 7.875 102.796875 C7.90819126 100.94528848 7.94268259 99.09372478 7.97851562 97.2421875 C8.06566113 92.71872789 8.12590336 88.19604232 8.1875 83.671875 C2.2475 83.671875 -3.6925 83.671875 -9.8125 83.671875 C-9.8125 83.011875 -9.8125 82.351875 -9.8125 81.671875 C8.6675 81.671875 27.1475 81.671875 46.1875 81.671875 C46.1875 82.331875 46.1875 82.991875 46.1875 83.671875 C40.5775 83.671875 34.9675 83.671875 29.1875 83.671875 C29.1875 101.161875 29.1875 118.651875 29.1875 136.671875 C28.1975 136.671875 27.2075 136.671875 26.1875 136.671875 C25.63411458 134.88151042 25.08072917 133.09114583 24.52734375 131.30078125 C23.1780201 129.34981727 23.1780201 129.34981727 20.046875 128.74609375 C15.50722496 128.65879279 12.45784196 129.9359254 8.5 131.921875 C-6.48837046 138.90860992 -20.8393595 141.16461501 -36.8125 135.671875 C-52.24803385 129.93637676 -61.96224897 118.21475132 -68.8125 103.671875 C-77.78938976 82.84824581 -78.86855119 58.63163811 -70.5625 37.359375 C-63.84831993 22.59217538 -53.55073595 8.66548919 -38.27734375 2.16796875 C-24.92754067 -2.75924563 -13.7919971 -3.51430695 0 0 Z"></path>
<path transform="translate(769,34)" fill="#000000" d="M0 0 C35.96938419 -3.12840031 35.96938419 -3.12840031 45.00732422 1.56005859 C49.47704145 5.81914465 51.53343472 11.2415914 53.69140625 16.92773438 C56.10993087 22.60585263 59.70805432 27.57144084 63.125 32.6875 C64.49685185 34.82383488 65.86415052 36.96310142 67.2265625 39.10546875 C70.30171395 43.91412394 73.3931398 48.71178713 76.5 53.5 C86.08624047 68.2777116 95.54318578 83.13929194 105 98 C105 66.98 105 35.96 105 4 C99.39 3.34 93.78 2.68 88 2 C88 1.34 88 0.68 88 0 C100.54 0 113.08 0 126 0 C126 0.66 126 1.32 126 2 C120.39 2.66 114.78 3.32 109 4 C108.67 47.23 108.34 90.46 108 135 C103 134 103 134 101.53710938 132.4597168 C101.14330078 131.79625244 100.74949219 131.13278809 100.34375 130.44921875 C99.65623657 129.32265869 99.65623657 129.32265869 98.95483398 128.17333984 C98.47473877 127.3530127 97.99464355 126.53268555 97.5 125.6875 C96.440332 123.94308013 95.37908174 122.19962063 94.31640625 120.45703125 C93.77129395 119.5542041 93.22618164 118.65137695 92.66455078 117.72119141 C90.01005896 113.38165403 87.22496016 109.12987217 84.4375 104.875 C83.33826737 103.18898089 82.23930628 101.5027847 81.140625 99.81640625 C80.61017578 99.00316895 80.07972656 98.18993164 79.53320312 97.35205078 C71.97218472 85.75287063 64.49994778 74.09763823 57.04370117 62.4309082 C52.38322857 55.14489475 47.68622061 47.88392141 42.96044922 40.64013672 C39.84213971 35.85355587 36.74742355 31.05244155 33.671875 26.23828125 C33.12031738 25.37503738 33.12031738 25.37503738 32.55761719 24.49435425 C30.74134487 21.65058816 28.92723938 18.80547349 27.11523438 15.95898438 C26.46361328 14.93740234 25.81199219 13.91582031 25.140625 12.86328125 C24.55829102 11.94844971 23.97595703 11.03361816 23.37597656 10.09106445 C22.16543745 8.09810371 22.16543745 8.09810371 21 7 C21 47.92 21 88.84 21 131 C26.28 131.66 31.56 132.32 37 133 C37 133.66 37 134.32 37 135 C24.79 135 12.58 135 0 135 C0 134.34 0 133.68 0 133 C1.05960938 132.90203125 2.11921875 132.8040625 3.2109375 132.703125 C4.59906397 132.55305727 5.98707963 132.40196208 7.375 132.25 C8.07367187 132.188125 8.77234375 132.12625 9.4921875 132.0625 C11.78363782 131.83881747 11.78363782 131.83881747 15 131 C17.09441372 127.98880356 17.25676576 125.37688383 17.2784729 121.77349854 C17.28963638 120.71623062 17.30079987 119.65896271 17.31230164 118.56965637 C17.31446182 117.41519516 17.31662201 116.26073395 17.31884766 115.07128906 C17.32889328 113.85150864 17.3389389 112.63172821 17.34928894 111.37498474 C17.37487803 108.03438195 17.39173484 104.69394893 17.40471697 101.3532877 C17.42035245 97.86053702 17.44714133 94.36787235 17.4727478 90.87518311 C17.51952824 84.26318758 17.55627587 77.65117586 17.58942068 71.03909945 C17.62764728 63.51068085 17.67705602 55.98234863 17.72740483 48.45400286 C17.83071374 32.96939668 17.91958085 17.48474291 18 2 C12.06 2 6.12 2 0 2 C0 1.34 0 0.68 0 0 Z"></path>
<path transform="translate(681,31)" fill="#000000" d="M0 0 C0.99 0 1.98 0 3 0 C12.4051644 25.20244332 21.74770532 50.42740968 31.03900146 75.67205811 C38.32281718 95.46170455 45.63909434 115.23890446 53 135 C61.415 135.495 61.415 135.495 70 136 C70 136.66 70 137.32 70 138 C50.86 138 31.72 138 12 138 C12 137.34 12 136.68 12 136 C17.94 136 23.88 136 30 136 C25.05 122.14 20.1 108.28 15 94 C0.15 93.67 -14.7 93.34 -30 93 C-30.99 96.3 -31.98 99.6 -33 103 C-33.80450384 105.32814514 -34.6294145 107.64940275 -35.48046875 109.9609375 C-36.14272461 111.78044922 -36.14272461 111.78044922 -36.81835938 113.63671875 C-37.50809133 115.51995266 -38.1978952 117.40316461 -38.89233398 119.28466797 C-39.57317138 121.13302861 -40.24568956 122.98444694 -40.91796875 124.8359375 C-41.31781982 125.92438965 -41.7176709 127.0128418 -42.12963867 128.13427734 C-43.19373792 131.13873197 -43.19373792 131.13873197 -43 135 C-38.05 135.33 -33.1 135.66 -28 136 C-28 136.66 -28 137.32 -28 138 C-39.55 138 -51.1 138 -63 138 C-63 137.34 -63 136.68 -63 136 C-62.18015625 135.93941406 -61.3603125 135.87882813 -60.515625 135.81640625 C-59.43796875 135.73261719 -58.3603125 135.64882812 -57.25 135.5625 C-56.18265625 135.48128906 -55.1153125 135.40007812 -54.015625 135.31640625 C-50.42712375 134.97115756 -50.42712375 134.97115756 -47 134 C-46.0084532 132.34735266 -46.0084532 132.34735266 -45.52294922 130.22192383 C-45.28300232 129.40309723 -45.04305542 128.58427063 -44.7958374 127.7406311 C-44.40189789 126.38401871 -44.40189789 126.38401871 -44 125 C-43.33618152 123.04502573 -42.65977472 121.09429624 -41.97314453 119.1472168 C-41.41336159 117.54360291 -41.41336159 117.54360291 -40.8422699 115.90759277 C-40.24358849 114.19569763 -40.24358849 114.19569763 -39.6328125 112.44921875 C-39.20521133 111.22489136 -38.77761017 110.00056396 -38.33705139 108.73913574 C-37.17513373 105.41241833 -36.01239224 102.08598947 -34.84942245 98.75963974 C-33.87816196 95.98144388 -32.90725557 93.20312432 -31.93633556 90.42480946 C-29.91647772 84.6449762 -27.89618084 78.86529662 -25.87541676 73.08578014 C-23.30383984 65.73084852 -20.73375337 58.37539841 -18.16510773 51.01944256 C-16.20657622 45.4108225 -14.24709191 39.80253599 -12.28684235 34.19451618 C-11.12250103 30.86340819 -9.9585889 27.5321517 -8.79571533 24.20053101 C-7.50461387 20.50165872 -6.21139343 16.80352933 -4.91796875 13.10546875 C-4.53359146 12.00328003 -4.14921417 10.90109131 -3.75318909 9.76550293 C-3.40304245 8.76547241 -3.05289581 7.76544189 -2.69213867 6.73510742 C-2.38765305 5.86367599 -2.08316742 4.99224457 -1.76945496 4.09440613 C-1 2 -1 2 0 0 Z M-8 29 C-10.59252891 36.36204827 -13.18311059 43.72477853 -15.77121639 51.08838272 C-16.97306883 54.50766375 -18.17558783 57.92670727 -19.37963867 61.34521484 C-20.54183247 64.64496172 -21.70226416 67.94532339 -22.86148262 71.24611664 C-23.5188977 73.11659431 -24.17813067 74.98643273 -24.83738708 76.85626221 C-25.23772659 77.99714294 -25.6380661 79.13802368 -26.05053711 80.31347656 C-26.40361435 81.31719299 -26.75669159 82.32090942 -27.12046814 83.3550415 C-27.84681182 85.53932723 -28.44171063 87.76684254 -29 90 C-14.81 90 -0.62 90 14 90 C11.73891952 81.55639729 11.73891952 81.55639729 9.13061523 73.26904297 C8.79694443 72.29208466 8.46327362 71.31512634 8.11949158 70.30856323 C7.76939529 69.29665924 7.41929901 68.28475525 7.05859375 67.2421875 C6.69024918 66.1725174 6.3219046 65.10284729 5.94239807 64.00076294 C5.17028979 61.76319708 4.39625482 59.52629519 3.62036133 57.29003906 C2.42964363 53.85231789 1.25078117 50.41067054 0.07226562 46.96875 C-0.68157379 44.78881412 -1.43610582 42.6091176 -2.19140625 40.4296875 C-2.54352676 39.3975412 -2.89564728 38.3653949 -3.25843811 37.30197144 C-3.58895676 36.35653473 -3.9194754 35.41109802 -4.26000977 34.43701172 C-4.5485231 33.60193085 -4.83703644 32.76684998 -5.1342926 31.90646362 C-5.84196014 29.81673194 -5.84196014 29.81673194 -8 29 Z"></path>
<path transform="translate(924,34)" fill="#000000" d="M0 0 C18.15 0 36.3 0 55 0 C55 0.66 55 1.32 55 2 C49.39 2 43.78 2 38 2 C38 45.23 38 88.46 38 133 C43.61 133 49.22 133 55 133 C55 133.66 55 134.32 55 135 C36.85 135 18.7 135 0 135 C0 134.34 0 133.68 0 133 C5.61 133 11.22 133 17 133 C17 89.77 17 46.54 17 2 C11.39 2 5.78 2 0 2 C0 1.34 0 0.68 0 0 Z"></path>
<path transform="translate(243,34)" fill="#000000" d="M0 0 C18.15 0 36.3 0 55 0 C55 0.66 55 1.32 55 2 C49.39 2 43.78 2 38 2 C38 45.23 38 88.46 38 133 C43.61 133 49.22 133 55 133 C55 133.66 55 134.32 55 135 C36.85 135 18.7 135 0 135 C0 134.34 0 133.68 0 133 C5.61 133 11.22 133 17 133 C17 89.77 17 46.54 17 2 C11.39 2 5.78 2 0 2 C0 1.34 0 0.68 0 0 Z"></path>
</svg>
